<?xml version="1.0" encoding="iso-8859-1"?>
<!-- Generator: Adobe Illustrator 19.0.0, SVG Export Plug-In . SVG Version: 6.00 Build 0)  -->
<svg version="1.1" id="Layer_1" xmlns="http://www.w3.org/2000/svg" xmlns:xlink="http://www.w3.org/1999/xlink" x="0px" y="0px"
	 viewBox="0 0 512.008 512.008" style="enable-background:new 0 0 512.008 512.008;" xml:space="preserve">
<path style="fill:#2D4961;" d="M382.023,127.058c11.331-9.116,17.919-22.877,17.911-37.422V31.985
	C399.934,14.321,385.613,0,367.95,0H144.058c-17.663,0-31.985,14.321-31.985,31.985v57.652
	c-0.008,14.545,6.581,28.306,17.911,37.422l110.027,88.437v18.551c0.048,3.99-2.855,7.396-6.797,7.996
	c-74.004,12.61-123.78,82.824-111.178,156.836s82.824,123.78,156.836,111.178c74.012-12.602,123.78-82.824,111.178-156.836
	c-9.691-56.9-54.27-101.479-111.178-111.178c-3.942-0.6-6.845-4.006-6.797-7.996v-18.551L382.023,127.058z"/>
<path style="fill:#123247;" d="M150.055,102.111c-3.79-3.031-5.997-7.62-5.997-12.474V31.985H367.95v57.652
	c0,4.854-2.207,9.443-5.997,12.474l-105.949,85.159L150.055,102.111z"/>
<path style="fill:#E2E5E7;" d="M256.004,479.768c-57.412,0-103.95-46.537-103.95-103.95s46.537-103.95,103.95-103.95
	s103.95,46.537,103.95,103.95S313.408,479.768,256.004,479.768z"/>
<path style="fill:#FFFFFF;" d="M160.05,383.814c-4.414,0-7.996-3.582-7.996-7.996c0-57.412,46.537-103.95,103.95-103.95
	c4.414,0,7.996,3.582,7.996,7.996s-3.582,7.996-7.996,7.996c-48.576,0-87.957,39.381-87.957,87.957
	C168.047,380.232,164.464,383.814,160.05,383.814z"/>
<path style="fill:#CAD1D8;" d="M256.004,479.768c-4.414,0-7.996-3.582-7.996-7.996c0-4.414,3.582-7.996,7.996-7.996
	c48.576,0,87.957-39.381,87.957-87.957c0-4.414,3.582-7.996,7.996-7.996s7.996,3.582,7.996,7.996
	C359.954,433.23,313.408,479.768,256.004,479.768z"/>
<path style="fill:#123247;" d="M256.004,511.752c-4.414,0-7.996-3.582-7.996-7.996s3.582-7.996,7.996-7.996
	c66.24,0,119.942-53.702,119.942-119.942c0-4.414,3.582-7.996,7.996-7.996s7.996,3.582,7.996,7.996
	C391.938,450.894,331.072,511.752,256.004,511.752L256.004,511.752z"/>
<path style="fill:#44637F;" d="M240.012,215.895v18.151c0.048,3.99-2.855,7.396-6.797,7.996
	c-65.256,11.099-113.033,67.583-113.145,133.775c0,4.414,3.582,7.996,7.996,7.996c4.414,0,7.996-3.582,7.996-7.996
	c-0.016-60.315,44.77-111.258,104.589-118.982c8.66-0.968,15.249-8.236,15.353-16.952l0,0v-7.996
	C256.004,223.052,248.839,215.895,240.012,215.895z"/>
<path style="fill:#123247;" d="M383.942,47.977v46.058c-0.016,7.284-3.342,14.169-9.036,18.711l-86.918,69.646
	c-10.091,8.028-15.976,20.214-15.992,33.104l0,0l110.027-88.437c11.331-9.116,17.919-22.877,17.911-37.422V31.985
	C391.098,31.985,383.942,39.141,383.942,47.977z"/>
<path style="fill:#44637F;" d="M144.058,0c-17.663,0-31.985,14.321-31.985,31.985v55.973l0,0c8.836,0,15.992-7.157,15.992-15.992
	V31.985c0-8.836,7.157-15.992,15.992-15.992h207.899c8.836,0,15.992-7.157,15.992-15.992H144.058z"/>
<g>
	<polygon style="fill:#FFCB5B;" points="327.969,129.457 327.969,47.977 295.985,47.977 295.985,155.125 	"/>
	<polygon style="fill:#FFCB5B;" points="216.023,155.125 216.023,47.977 184.039,47.977 184.039,129.457 	"/>
	<polygon style="fill:#FFCB5B;" points="240.012,174.396 256.004,187.269 271.996,174.396 271.996,47.977 240.012,47.977 	"/>
</g>
<rect x="144.09" y="31.985" style="fill:#44637F;" width="223.892" height="15.992"/>
<g>
	<rect x="184.071" y="31.985" style="fill:#FFDB6F;" width="31.985" height="15.992"/>
	<rect x="240.044" y="31.985" style="fill:#FFDB6F;" width="31.985" height="15.992"/>
	<rect x="296.017" y="31.985" style="fill:#FFDB6F;" width="31.985" height="15.992"/>
</g>
<g>
	<path style="fill:#CAD1D8;" d="M287.429,324.883l-15.992-39.981c-1.623-4.11-6.269-6.117-10.379-4.494
		c-2.055,0.816-3.686,2.439-4.494,4.494l-15.992,39.981c-0.76,1.903-0.76,4.014,0,5.917l15.992,39.981
		c1.623,4.11,6.269,6.117,10.379,4.494c2.055-0.816,3.686-2.439,4.494-4.494l15.992-39.981
		C288.18,328.897,288.18,326.786,287.429,324.883z"/>
	<path style="fill:#CAD1D8;" d="M317.014,360.385l-39.981,15.992c-4.11,1.623-6.117,6.269-4.494,10.379
		c0.816,2.055,2.439,3.686,4.494,4.494l39.981,15.992c1.903,0.76,4.014,0.76,5.917,0l35.423-14.153
		c1.016-5.701,1.551-11.482,1.599-17.272c0,0,0-0.4,0-0.64l-36.942-14.793C321.084,359.61,318.933,359.61,317.014,360.385z"/>
	<path style="fill:#CAD1D8;" d="M271.436,396.848c-1.623-4.11-6.269-6.117-10.379-4.494c-2.055,0.816-3.686,2.439-4.494,4.494
		l-15.992,39.981c-0.76,1.903-0.76,4.014,0,5.917l14.793,37.022h0.64c5.765-0.032,11.514-0.536,17.192-1.519l14.153-35.423
		c0.76-1.903,0.76-4.014,0-5.917L271.436,396.848z"/>
	<path style="fill:#CAD1D8;" d="M210.986,407.243l39.981-15.992c4.11-1.623,6.117-6.269,4.494-10.379
		c-0.816-2.055-2.439-3.686-4.494-4.494l-39.981-15.992c-1.903-0.76-4.014-0.76-5.917,0l-39.981,15.992
		c-4.11,1.623-6.117,6.269-4.494,10.379c0.816,2.055,2.439,3.686,4.494,4.494l39.981,15.992
		C206.964,408.002,209.083,408.002,210.986,407.243z"/>
</g>
<g>
	<path style="fill:#2D4961;" d="M279.433,316.887l-15.992-39.981c-1.623-4.11-6.269-6.117-10.379-4.494
		c-2.055,0.816-3.686,2.439-4.494,4.494l-15.992,39.981c-0.76,1.903-0.76,4.014,0,5.917l15.992,39.981
		c1.623,4.11,6.269,6.117,10.379,4.494c2.055-0.816,3.686-2.439,4.494-4.494l15.992-39.981
		C280.184,320.901,280.184,318.79,279.433,316.887z"/>
	<path style="fill:#2D4961;" d="M279.433,428.832l-15.992-39.981c-1.623-4.11-6.269-6.117-10.379-4.494
		c-2.055,0.816-3.686,2.439-4.494,4.494l-15.992,39.981c-0.76,1.903-0.76,4.014,0,5.917l15.992,39.981
		c1.623,4.11,6.269,6.117,10.379,4.494c2.055-0.816,3.686-2.439,4.494-4.494l15.992-39.981
		C280.184,432.846,280.184,430.735,279.433,428.832z"/>
	<path style="fill:#2D4961;" d="M314.935,399.247l39.981-15.992c4.11-1.623,6.117-6.269,4.494-10.379
		c-0.816-2.055-2.439-3.686-4.494-4.494l-39.981-15.992c-1.903-0.76-4.014-0.76-5.917,0l-39.981,15.992
		c-4.11,1.623-6.117,6.269-4.494,10.379c0.816,2.055,2.439,3.686,4.494,4.494l39.981,15.992
		C310.913,400.006,313.032,400.006,314.935,399.247z"/>
	<path style="fill:#2D4961;" d="M202.99,399.247l39.981-15.992c4.11-1.623,6.117-6.269,4.494-10.379
		c-0.816-2.055-2.439-3.686-4.494-4.494l-39.981-15.992c-1.903-0.76-4.014-0.76-5.917,0l-39.981,15.992
		c-4.11,1.623-6.117,6.269-4.494,10.379c0.816,2.055,2.439,3.686,4.494,4.494l39.981,15.992
		C198.968,400.006,201.087,400.006,202.99,399.247z"/>
</g>
<g>
	<path style="fill:#123247;" d="M263.44,474.73l15.992-39.981c0.76-1.903,0.76-4.014,0-5.917l-15.992-39.981
		c-1.199-3.039-7.436,0-7.436,10.955v79.961C259.274,479.768,262.225,477.777,263.44,474.73z"/>
	<path style="fill:#123247;" d="M263.44,362.784l15.992-39.981c0.76-1.903,0.76-4.014,0-5.917l-15.992-39.981
		c-1.199-3.039-7.436,0-7.436,10.955v79.961C259.274,367.822,262.225,365.831,263.44,362.784z"/>
	<path style="fill:#123247;" d="M269.038,383.254l39.981,15.992c1.903,0.76,4.014,0.76,5.917,0l39.981-15.992
		c3.047-1.215,5.038-4.158,5.038-7.436H264C263.992,379.096,265.991,382.039,269.038,383.254z"/>
	<path style="fill:#123247;" d="M157.092,383.254l39.981,15.992c1.903,0.76,4.014,0.76,5.917,0l39.981-15.992
		c3.047-1.215,5.038-4.158,5.038-7.436h-95.954C152.046,379.096,154.045,382.039,157.092,383.254z"/>
</g>
<g>
</g>
<g>
</g>
<g>
</g>
<g>
</g>
<g>
</g>
<g>
</g>
<g>
</g>
<g>
</g>
<g>
</g>
<g>
</g>
<g>
</g>
<g>
</g>
<g>
</g>
<g>
</g>
<g>
</g>
</svg>
