<?xml version="1.0" encoding="iso-8859-1"?>
<!-- Generator: Adobe Illustrator 19.0.0, SVG Export Plug-In . SVG Version: 6.00 Build 0)  -->
<svg version="1.1" id="Layer_1" xmlns="http://www.w3.org/2000/svg" xmlns:xlink="http://www.w3.org/1999/xlink" x="0px" y="0px"
	 viewBox="0 0 512 512" style="enable-background:new 0 0 512 512;" xml:space="preserve">
<path style="fill:#EE2C39;" d="M119.2,388c-4.8-3.2-7.2-8-7.2-13.6V32h288v342.4c0,5.6-2.4,10.4-7.2,13.6L256,476.8L119.2,388z"/>
<circle style="fill:#2E485D;" cx="256" cy="376" r="8"/>
<path style="fill:#F16351;" d="M112,32v232h12c6.4,0,12-5.6,12-12l0,0v-80.8c0-6.4,5.6-11.2,11.2-11.2c0,0,0,0,0.8,0l0,0
	c6.4,0,12-5.6,12-12l0,0V88c0-17.6,14.4-32,32-32h152c13.6,0,24-10.4,24-24H112z"/>
<g>
	<circle style="fill:#2E485D;" cx="160" cy="80" r="8"/>
	<circle style="fill:#2E485D;" cx="352" cy="80" r="8"/>
</g>
<g>
	<path style="fill:#CC202C;" d="M388,104c-6.4,0-12,5.6-12,12v72.8c0,5.6-4.8,11.2-10.4,11.2l0,0h-0.8c-6.4,0-12,5.6-12,12l0,0v23.2
		c-3.2,0-5.6,0.8-8.8,2.4L264,288l-79.2-50.4c-7.2-4.8-17.6-2.4-22.4,4.8c-4.8,7.2-2.4,17.6,4.8,22.4l88,56c5.6,3.2,12,3.2,16.8,0
		l79.2-50.4v15.2c0,5.6-4.8,11.2-10.4,11.2l0,0H340c-6.4,0-12,5.6-12,12l0,0V344c0,35.2-18.4,68.8-48,88c-15.2,9.6-24,26.4-24,44.8
		L392.8,388c4-2.4,7.2-7.2,7.2-12l0,0V104H388z"/>
	<path style="fill:#CC202C;" d="M264,251.2c-3.2,0-5.6-0.8-8.8-2.4l-88-56c-8-4.8-10.4-14.4-5.6-21.6c4.8-8,14.4-10.4,21.6-5.6
		l0.8,0.8l80,49.6l79.2-50.4c7.2-4.8,17.6-2.4,22.4,4.8s2.4,17.6-4.8,22.4l0,0l-88,56C270.4,250.4,267.2,251.2,264,251.2z"/>
</g>
<path style="fill:#FFFFFF;" d="M256,315.2c-3.2,0-5.6-0.8-8.8-2.4l-88-56c-8-4.8-10.4-14.4-5.6-21.6c4.8-8,14.4-10.4,21.6-5.6
	l0.8,0.8l80,49.6l79.2-50.4c7.2-4.8,17.6-2.4,22.4,4.8s2.4,17.6-4.8,22.4l0,0l-88,56C262.4,314.4,259.2,315.2,256,315.2z"/>
<path style="fill:#DDDFE1;" d="M357.6,234.4c-1.6-2.4-4-4.8-7.2-6.4c3.2,7.2,0.8,16-5.6,20L248,312c5.6,3.2,12,3.2,16.8,0l88-56
	C360,252,362.4,241.6,357.6,234.4L357.6,234.4z"/>
<path style="fill:#FFFFFF;" d="M256,243.2c-3.2,0-5.6-0.8-8.8-2.4l-88-56c-7.2-4.8-8.8-15.2-4-22.4s14.4-8.8,21.6-4.8L256,208
	l79.2-50.4c7.2-4.8,17.6-2.4,22.4,4.8s2.4,17.6-4.8,22.4l-88,56C262.4,242.4,259.2,243.2,256,243.2z"/>
<path style="fill:#DDDFE1;" d="M357.6,162.4c-1.6-2.4-4-4.8-7.2-6.4c3.2,7.2,0.8,16-5.6,20L248,240c5.6,3.2,12,3.2,16.8,0l88-56
	C360,180,362.4,169.6,357.6,162.4L357.6,162.4z"/>
<path style="fill:#2D4961;" d="M400,0H112C94.4,0,80,14.4,80,32v342.4c0,16,8,31.2,21.6,40l145.6,94.4c5.6,3.2,12,3.2,17.6,0
	l145.6-94.4c13.6-8.8,21.6-24,21.6-40V32C432,14.4,417.6,0,400,0z M400,68.8c-7.2-6.4-15.2-10.4-24.8-12c-1.6-8.8-5.6-17.6-12-24.8
	H400V68.8z M148.8,32c-6.4,7.2-10.4,15.2-12,24.8c-9.6,1.6-17.6,5.6-24.8,12V32H148.8z M256,476.8l-26.4-17.6
	c11.2-4.8,20-12.8,26.4-23.2c6.4,10.4,15.2,18.4,26.4,23.2L256,476.8z M400,374.4c0,5.6-2.4,10.4-7.2,13.6l-92,60
	c-20.8-1.6-36.8-19.2-36.8-40c0-4.8-3.2-8-8-8c-4.8,0-8,3.2-8,8c0,20.8-16,38.4-36.8,40l-92-60c-4.8-3.2-7.2-8-7.2-13.6V104
	c0-17.6,14.4-32,32-32c4.8,0,8-3.2,8-8c0-17.6,14.4-32,32-32h144c17.6,0,32,14.4,32,32c0,4.8,3.2,8,8,8c17.6,0,32,14.4,32,32V374.4z
	"/>
<path style="fill:#44637F;" d="M80,32v272l0,0c8.8,0,16-7.2,16-16V32c0-8.8,7.2-16,16-16h272c8.8,0,16-7.2,16-16H112
	C94.4,0,80,14.4,80,32z"/>
<path style="fill:#123247;" d="M410.4,415.2c13.6-8.8,21.6-24,21.6-40V56l0,0c-8.8,0-16,7.2-16,16v304.8c0,8-4,15.2-10.4,20
	l-136,90.4c-8,5.6-13.6,15.2-13.6,24.8l0,0c3.2,0,6.4-0.8,8.8-2.4L410.4,415.2z"/>
<g>
</g>
<g>
</g>
<g>
</g>
<g>
</g>
<g>
</g>
<g>
</g>
<g>
</g>
<g>
</g>
<g>
</g>
<g>
</g>
<g>
</g>
<g>
</g>
<g>
</g>
<g>
</g>
<g>
</g>
</svg>
