<?xml version="1.0" encoding="iso-8859-1"?>
<!-- Generator: Adobe Illustrator 19.0.0, SVG Export Plug-In . SVG Version: 6.00 Build 0)  -->
<svg version="1.1" id="Layer_1" xmlns="http://www.w3.org/2000/svg" xmlns:xlink="http://www.w3.org/1999/xlink" x="0px" y="0px"
	 viewBox="0 0 512 512" style="enable-background:new 0 0 512 512;" xml:space="preserve">
<path style="fill:#3CB54A;" d="M119.2,388c-4.8-3.2-7.2-8-7.2-13.6V32h288v342.4c0,5.6-2.4,10.4-7.2,13.6L256,476.8L119.2,388z"/>
<path style="fill:#89C763;" d="M112,32v232h12c6.4,0,12-5.6,12-12l0,0v-80.8c0-6.4,5.6-11.2,11.2-11.2c0,0,0,0,0.8,0l0,0
	c6.4,0,12-5.6,12-12l0,0V88c0-17.6,14.4-32,32-32h152c13.6,0,24-10.4,24-24H112z"/>
<path style="fill:#0E9347;" d="M287.2,164.8l-16-40c-1.6-4-6.4-6.4-10.4-4.8c-2.4,0.8-4,2.4-4.8,4.8l-16,40c-0.8,1.6-0.8,4,0,5.6
	l16,40c1.6,4,6.4,6.4,10.4,4.8c2.4-0.8,4-2.4,4.8-4.8l16-40C288,168.8,288,167.2,287.2,164.8z"/>
<path style="fill:#FFFFFF;" d="M279.2,156.8l-16-40c-1.6-4-6.4-6.4-10.4-4.8c-2.4,0.8-4,2.4-4.8,4.8l-16,40c-0.8,1.6-0.8,4,0,5.6
	l16,40c1.6,4,6.4,6.4,10.4,4.8c2.4-0.8,4-2.4,4.8-4.8l16-40C280,160.8,280,159.2,279.2,156.8z"/>
<g>
	<circle style="fill:#2D4961;" cx="256" cy="376" r="8"/>
	<circle style="fill:#2D4961;" cx="256" cy="88" r="8"/>
	<circle style="fill:#2D4961;" cx="312" cy="208" r="8"/>
	<circle style="fill:#2D4961;" cx="256" cy="288" r="8"/>
	<circle style="fill:#2D4961;" cx="208" cy="208" r="8"/>
	<circle style="fill:#2D4961;" cx="256" cy="56" r="8"/>
	<circle style="fill:#2D4961;" cx="256" cy="344" r="8"/>
</g>
<g>
	<path style="fill:#0E9347;" d="M238.4,282.4l16.8-39.2c1.6-4,0-8.8-4.8-10.4c-1.6-0.8-4-0.8-5.6,0l-39.2,16.8c-1.6,0.8-3.2,2.4-4,4
		l-16.8,39.2c-1.6,4,0,8.8,4.8,10.4c1.6,0.8,4,0.8,5.6,0l39.2-16.8C236,285.6,237.6,284,238.4,282.4z"/>
	<path style="fill:#0E9347;" d="M388,104c-6.4,0-12,5.6-12,12v72.8c0,5.6-4.8,11.2-10.4,11.2l0,0h-0.8c-6.4,0-12,5.6-12,12l0,0v73.6
		c0,4.8-3.2,9.6-8,10.4c0-0.8,0-1.6-0.8-2.4l-16.8-39.2c-0.8-1.6-2.4-3.2-4-4L284,233.6c-4-1.6-8.8,0-10.4,4.8c-0.8,1.6-0.8,4,0,5.6
		l16.8,39.2c0.8,1.6,2.4,3.2,4,4l36,15.2c-1.6,1.6-2.4,4-2.4,5.6v36c0,35.2-18.4,68.8-48,88c-15.2,9.6-24,26.4-24,44.8L392.8,388
		c4-2.4,7.2-7.2,7.2-12l0,0V104H388z"/>
</g>
<path style="fill:#FFFFFF;" d="M230.4,274.4l16.8-39.2c1.6-4,0-8.8-4.8-10.4c-1.6-0.8-4-0.8-5.6,0l-39.2,16.8c-1.6,0.8-3.2,2.4-4,4
	l-16.8,39.2c-1.6,4,0,8.8,4.8,10.4c1.6,0.8,4,0.8,5.6,0l39.2-16.8C228,277.6,229.6,276,230.4,274.4z"/>
<path style="fill:#DDDFE1;" d="M187.2,295.2l39.2-16.8c1.6-0.8,3.2-2.4,4-4l16.8-39.2c1.6-3.2-4.8-4.8-12.8,2.4l-56,56
	C180.8,296,184,296.8,187.2,295.2z"/>
<path style="fill:#FFFFFF;" d="M281.6,274.4l-16.8-39.2c-1.6-4,0-8.8,4.8-10.4c1.6-0.8,4-0.8,5.6,0l39.2,16.8c1.6,0.8,3.2,2.4,4,4
	l16.8,39.2c1.6,4,0,8.8-4.8,10.4c-1.6,0.8-4,0.8-5.6,0l-39.2-16.8C284,277.6,282.4,276,281.6,274.4z"/>
<g>
	<path style="fill:#DDDFE1;" d="M324.8,295.2l-39.2-16.8c-1.6-0.8-3.2-2.4-4-4l-16.8-39.2c-1.6-3.2,4.8-4.8,12.8,2.4l56,56
		C331.2,296,328,296.8,324.8,295.2z"/>
	<path style="fill:#DDDFE1;" d="M263.2,203.2l16-40c0.8-1.6,0.8-4,0-5.6l-16-40c-0.8-3.2-7.2,0-7.2,11.2v80
		C259.2,208,262.4,206.4,263.2,203.2z"/>
</g>
<path style="fill:#2D4961;" d="M400,0H112C94.4,0,80,14.4,80,32v342.4c0,16,8,31.2,21.6,40l145.6,94.4c5.6,3.2,12,3.2,17.6,0
	l145.6-94.4c13.6-8.8,21.6-24,21.6-40V32C432,14.4,417.6,0,400,0z M400,68.8c-7.2-6.4-15.2-10.4-24.8-12c-1.6-8.8-5.6-17.6-12-24.8
	H400V68.8z M148.8,32c-6.4,7.2-10.4,15.2-12,24.8c-9.6,1.6-17.6,5.6-24.8,12V32H148.8z M256,476.8l-26.4-17.6
	c11.2-4.8,20-12.8,26.4-23.2c6.4,10.4,15.2,18.4,26.4,23.2L256,476.8z M400,374.4c0,5.6-2.4,10.4-7.2,13.6l-92,60
	c-20.8-1.6-36.8-19.2-36.8-40c0-4.8-3.2-8-8-8c-4.8,0-8,3.2-8,8c0,20.8-16,38.4-36.8,40l-92-60c-4.8-3.2-7.2-8-7.2-13.6V104
	c0-17.6,14.4-32,32-32c4.8,0,8-3.2,8-8c0-17.6,14.4-32,32-32h144c17.6,0,32,14.4,32,32c0,4.8,3.2,8,8,8c17.6,0,32,14.4,32,32V374.4z
	"/>
<path style="fill:#44637F;" d="M80,32v272l0,0c8.8,0,16-7.2,16-16V32c0-8.8,7.2-16,16-16h272c8.8,0,16-7.2,16-16H112
	C94.4,0,80,14.4,80,32z"/>
<path style="fill:#123247;" d="M410.4,415.2c13.6-8.8,21.6-24,21.6-40V56l0,0c-8.8,0-16,7.2-16,16v304.8c0,8-4,15.2-10.4,20
	l-136,90.4c-8,5.6-13.6,15.2-13.6,24.8l0,0c3.2,0,6.4-0.8,8.8-2.4L410.4,415.2z"/>
<g>
</g>
<g>
</g>
<g>
</g>
<g>
</g>
<g>
</g>
<g>
</g>
<g>
</g>
<g>
</g>
<g>
</g>
<g>
</g>
<g>
</g>
<g>
</g>
<g>
</g>
<g>
</g>
<g>
</g>
</svg>
