<?xml version="1.0" encoding="iso-8859-1"?>
<!-- Generator: Adobe Illustrator 19.0.0, SVG Export Plug-In . SVG Version: 6.00 Build 0)  -->
<svg version="1.1" id="Layer_1" xmlns="http://www.w3.org/2000/svg" xmlns:xlink="http://www.w3.org/1999/xlink" x="0px" y="0px"
	 viewBox="0 0 512.002 512.002" style="enable-background:new 0 0 512.002 512.002;" xml:space="preserve">
<path style="fill:#BD6428;" d="M119.287,388.062c-4.552-2.96-7.288-8.016-7.28-13.439V31.999h287.987v342.624
	c0.008,5.424-2.728,10.48-7.28,13.439l-136.714,88.796L119.287,388.062z"/>
<path style="fill:#A35623;" d="M387.995,103.995c-6.624,0-11.999,5.376-11.999,11.999v73.197c0,5.968-4.832,10.799-10.799,10.799
	c-0.024,0-0.056,0-0.08,0h-1.12c-6.584-0.048-11.951,5.256-11.999,11.839c0,0.024,0,0.056,0,0.08v73.277
	c0,5.968-4.832,10.799-10.799,10.799c-0.024,0-0.056,0-0.08,0h-1.04c-6.624-0.048-12.031,5.296-12.079,11.919
	c0,0.024,0,0.056,0,0.08v35.998c-0.056,35.566-18.119,68.693-47.998,87.996l0,0c-15.015,9.88-24.039,26.663-23.999,44.638
	l136.714-88.556c4.168-2.68,6.856-7.144,7.28-12.079l0,0V103.995H387.995z"/>
<circle style="fill:#2E485D;" cx="255.985" cy="375.982" r="8"/>
<path style="fill:#D17F4D;" d="M112.008,31.999v231.989h11.999c6.624,0,11.999-5.376,11.999-11.999l0,0v-81.196
	c0.16-6.136,5.272-10.983,11.415-10.815c0.144,0,0.288,0.008,0.424,0.016l0,0c6.624,0.088,12.071-5.216,12.159-11.839
	c0-0.056,0-0.104,0-0.16V87.996c0-17.671,14.327-31.999,31.998-31.999h151.993c13.255,0,23.999-10.743,23.999-23.999H112.008z"/>
<circle style="fill:#2E485D;" cx="343.981" cy="87.996" r="8"/>
<path style="fill:#2D4961;" d="M399.994,0H112.008C94.337,0,80.009,14.327,80.009,31.999v342.624
	c0.08,16.159,8.288,31.191,21.839,39.998l145.433,94.796c5.304,3.448,12.135,3.448,17.439,0l145.433-94.556
	c13.551-8.808,21.759-23.839,21.839-39.998V31.999C431.993,14.327,417.665,0,399.994,0z M399.994,68.477
	c-6.872-6.24-15.399-10.352-24.559-11.839c-1.496-9.2-5.64-17.759-11.919-24.639h36.478V68.477z M148.486,31.999
	c-6.264,6.864-10.408,15.391-11.919,24.559c-9.168,1.512-17.695,5.656-24.559,11.919V31.999H148.486z M256.001,476.858
	l-26.479-17.199c11.047-4.6,20.327-12.623,26.479-22.879c6.152,10.256,15.431,18.279,26.479,22.879L256.001,476.858z
	 M399.994,374.622c0.008,5.424-2.728,10.48-7.28,13.439l-91.756,59.917c-20.895-1.592-37.022-19.039-36.958-39.998
	c0-4.416-3.584-8-8-8s-8,3.584-8,8c0.064,20.959-16.063,38.406-36.958,39.998l-91.756-59.917c-4.552-2.96-7.288-8.016-7.28-13.439
	V103.995c0-17.671,14.327-31.998,31.998-31.998c4.416,0,8-3.584,8-8c0-17.671,14.327-31.999,31.999-31.999h143.993
	c17.671,0,31.999,14.327,31.999,31.999c0,4.416,3.584,8,8,8c17.671,0,31.999,14.327,31.999,31.998L399.994,374.622L399.994,374.622z
	"/>
<path style="fill:#44637F;" d="M80.009,31.999v271.987l0,0c8.84,0,15.999-7.16,15.999-15.999V31.999
	c0-8.84,7.16-15.999,15.999-15.999h271.987c8.84,0,15.999-7.16,15.999-15.999H112.008C94.329,0,80.009,14.327,80.009,31.999z"/>
<path style="fill:#123247;" d="M410.154,414.861c13.551-8.808,21.759-23.839,21.839-39.998V55.997l0,0
	c-8.84,0-15.999,7.16-15.999,15.999v304.466c0,8.04-4.024,15.551-10.719,19.999L269.28,487.097
	c-8.304,5.56-13.287,14.887-13.279,24.879l0,0c3.096,0.008,6.12-0.88,8.72-2.56L410.154,414.861z"/>
<g>
	<circle style="fill:#A35623;" cx="335.981" cy="215.99" r="15.999"/>
	<circle style="fill:#A35623;" cx="191.988" cy="215.99" r="15.999"/>
	<circle style="fill:#A35623;" cx="263.985" cy="143.993" r="15.999"/>
</g>
<g>
	<circle style="fill:#FFFFFF;" cx="327.982" cy="207.99" r="15.999"/>
	<circle style="fill:#FFFFFF;" cx="255.985" cy="135.994" r="15.999"/>
	<circle style="fill:#FFFFFF;" cx="183.988" cy="207.99" r="15.999"/>
</g>
<g>
	<circle style="fill:#2E485D;" cx="287.984" cy="375.982" r="8"/>
	<circle style="fill:#2E485D;" cx="367.98" cy="111.995" r="8"/>
	<circle style="fill:#2E485D;" cx="319.982" cy="63.997" r="8"/>
	<circle style="fill:#2E485D;" cx="167.989" cy="87.996" r="8"/>
	<circle style="fill:#2E485D;" cx="191.988" cy="63.997" r="8"/>
	<circle style="fill:#2E485D;" cx="143.99" cy="111.995" r="8"/>
	<circle style="fill:#2E485D;" cx="223.987" cy="375.982" r="8"/>
</g>
<path style="fill:#A35623;" d="M292.399,218.31l30.399-30.399c5.824-5.56,6.808-14.511,2.32-21.199
	c-5.224-7.128-15.231-8.68-22.359-3.456c-0.576,0.424-1.12,0.88-1.64,1.376l-31.039,31.039c-3.12,3.104-8.16,3.104-11.279,0
	l-30.399-30.399c-5.576-5.792-14.503-6.768-21.199-2.32c-7.128,5.224-8.68,15.231-3.456,22.359c0.424,0.576,0.88,1.12,1.376,1.64
	l31.039,31.039c3.104,3.12,3.104,8.16,0,11.279l-30.639,30.719c-6.224,5.952-6.888,15.663-1.52,22.399
	c5.712,6.736,15.815,7.568,22.551,1.856c0.336-0.288,0.656-0.584,0.968-0.896l31.039-31.039c3.12-3.104,8.16-3.104,11.279,0
	l31.039,31.039c6.248,6.248,16.375,6.256,22.623,0.008c0.312-0.312,0.608-0.632,0.896-0.968c5.368-6.736,4.704-16.447-1.52-22.399
	l-30.319-30.319c-3.184-3.064-3.272-8.128-0.208-11.311C292.367,218.342,292.383,218.326,292.399,218.31z"/>
<path style="fill:#FFFFFF;" d="M284.32,210.31l30.399-30.399c5.824-5.56,6.808-14.511,2.32-21.199
	c-5.224-7.128-15.231-8.68-22.359-3.456c-0.576,0.424-1.12,0.88-1.64,1.376l-31.039,31.039c-3.12,3.104-8.16,3.104-11.279,0
	l-30.399-30.399c-5.576-5.792-14.503-6.768-21.199-2.32c-7.128,5.224-8.68,15.231-3.456,22.359c0.424,0.576,0.88,1.12,1.376,1.64
	l31.039,31.039c3.104,3.12,3.104,8.16,0,11.279l-30.719,30.719c-6.224,5.952-6.888,15.663-1.52,22.399
	c5.712,6.736,15.815,7.568,22.551,1.856c0.336-0.288,0.656-0.584,0.968-0.896l31.039-31.039c3.12-3.104,8.16-3.104,11.279,0
	l31.039,31.039c6.248,6.248,16.375,6.256,22.623,0.008c0.312-0.312,0.608-0.632,0.896-0.968c5.368-6.736,4.704-16.447-1.52-22.399
	L284.4,221.67c-3.16-3.088-3.216-8.152-0.128-11.311C284.288,210.342,284.304,210.326,284.32,210.31z"/>
<g>
	<path style="fill:#DDDFE1;" d="M306.879,171.912l-30.399,30.399c-3.104,3.12-3.104,8.16,0,11.279l8,8
		c-2.896-3.08-2.896-7.88,0-10.96l30.399-30.399c5.824-5.56,6.808-14.511,2.32-21.199c-1.632-2.224-3.808-3.984-6.32-5.12
		C313.206,160.176,311.638,167.224,306.879,171.912z"/>
	<path style="fill:#DDDFE1;" d="M307.439,244.789c5.6,5.992,5.976,15.175,0.88,21.599c-5.712,6.736-15.815,7.568-22.551,1.856
		c-0.336-0.288-0.656-0.584-0.968-0.896l-31.039-31.039c-3.12-3.104-8.16-3.104-11.279,0l-31.039,31.039
		c-4.704,4.72-11.847,6.024-17.919,3.28c0.568,1.392,1.352,2.688,2.32,3.84c5.712,6.736,15.815,7.568,22.551,1.856
		c0.336-0.288,0.656-0.584,0.968-0.896l31.039-31.039c3.12-3.104,8.16-3.104,11.279,0l31.039,31.039
		c6.248,6.248,16.375,6.256,22.623,0.008c0.312-0.312,0.608-0.632,0.896-0.968c5.368-6.736,4.704-16.447-1.52-22.399
		L307.439,244.789z"/>
</g>
<path style="fill:#A35623;" d="M311.998,351.984c-4.24-0.016-8.296-1.712-11.279-4.72l-36.718-36.638l-36.718,36.718
	c-6.248,6.248-16.391,6.248-22.639,0c-6.248-6.248-6.248-16.391,0-22.639l47.998-47.998c6.248-6.248,16.375-6.256,22.623-0.016
	c0.008,0.008,0.008,0.008,0.016,0.016l47.998,47.998c6.232,6.264,6.2,16.399-0.064,22.623
	C320.23,350.296,316.198,351.968,311.998,351.984z"/>
<path style="fill:#FFFFFF;" d="M303.999,343.984c-4.24-0.016-8.296-1.712-11.279-4.72l-36.718-36.638l-36.718,36.718
	c-6.248,6.248-16.391,6.248-22.639,0s-6.248-16.391,0-22.639l47.998-47.998c6.248-6.248,16.375-6.256,22.623-0.016
	c0.008,0.008,0.008,0.008,0.016,0.016l47.998,47.998c6.232,6.264,6.2,16.399-0.064,22.623
	C312.23,342.296,308.199,343.968,303.999,343.984z"/>
<g>
	<path style="fill:#DDDFE1;" d="M314.638,315.985l-7.28-7.28c6.248,6.248,6.248,16.391,0,22.639c-6.248,6.248-16.391,6.248-22.639,0
		l0,0l-31.039-31.039c-3.12-3.104-8.16-3.104-11.279,0l-31.039,31.039c-4.712,4.656-11.807,5.928-17.839,3.2
		c1.776,4.136,5.288,7.264,9.6,8.56c5.984,1.784,12.463,0.088,16.799-4.4l36.078-36.078l36.718,36.718
		c6.248,6.248,16.375,6.256,22.623,0.008c0.312-0.312,0.608-0.632,0.896-0.968C321.582,331.632,320.886,321.913,314.638,315.985z"/>
	<path style="fill:#DDDFE1;" d="M195.284,219.27c4.352-4.36,5.816-10.831,3.76-16.639c-0.944-2.52-3.76-3.8-6.28-2.856
		c-0.64,0.24-1.232,0.616-1.72,1.096l-14.239,14.239c-1.896,1.92-1.872,5.008,0.04,6.904c0.488,0.48,1.072,0.856,1.72,1.096
		C184.404,225.181,190.924,223.686,195.284,219.27z"/>
	<path style="fill:#DDDFE1;" d="M339.277,219.27c4.352-4.36,5.816-10.831,3.76-16.639c-0.944-2.52-3.76-3.8-6.28-2.856
		c-0.64,0.24-1.232,0.616-1.72,1.096l-14.239,14.239c-1.896,1.92-1.872,5.008,0.04,6.904c0.488,0.48,1.072,0.856,1.72,1.096
		C328.398,225.181,334.917,223.686,339.277,219.27z"/>
	<path style="fill:#DDDFE1;" d="M267.28,147.273c4.352-4.36,5.816-10.831,3.76-16.639c-0.944-2.52-3.76-3.8-6.28-2.856
		c-0.64,0.24-1.232,0.616-1.72,1.096l-14.239,14.239c-1.896,1.92-1.872,5.008,0.04,6.904c0.488,0.48,1.072,0.856,1.72,1.096
		C256.401,153.185,262.921,151.689,267.28,147.273z"/>
</g>
<g>
</g>
<g>
</g>
<g>
</g>
<g>
</g>
<g>
</g>
<g>
</g>
<g>
</g>
<g>
</g>
<g>
</g>
<g>
</g>
<g>
</g>
<g>
</g>
<g>
</g>
<g>
</g>
<g>
</g>
</svg>
